Coordinates
version=1
nRows=28
nColumns=38
inDegrees=no

Units are S.I. units (second, meters, Newtons, ...)
If the header above contains a line with 'inDegrees', this indicates whether rotational values are in degrees (yes) or radians (no).

endheader
time	pelvis_tilt	pelvis_list	pelvis_rotation	pelvis_tx	pelvis_ty	pelvis_tz	hip_flexion_r	hip_adduction_r	hip_rotation_r	knee_angle_r	ankle_angle_r	subtalar_angle_r	mtp_angle_r	hip_flexion_l	hip_adduction_l	hip_rotation_l	knee_angle_l	ankle_angle_l	subtalar_angle_l	mtp_angle_l	lumbar_extension	lumbar_bending	lumbar_rotation	arm_flex_r	arm_add_r	arm_rot_r	elbow_flex_r	pro_sup_r	wrist_flex_r	wrist_dev_r	arm_flex_l	arm_add_l	arm_rot_l	elbow_flex_l	pro_sup_l	wrist_flex_l	wrist_dev_l
25	0.291176	1.54672	1.51203	0.541639	0.22417	0.93645	-0.0320859	-0.0377463	-0.147629	0	-0.0596133	0	0	-0.0382066	-0.00467082	-0.228275	0	-0.0278126	0	0	-0.165987	0.0312592	-0.107658	0.166999	-0.27559	0.550792	0.407431	1.05887	0	0	0.121595	-0.309724	0.525791	0.74993	1.03753	0	0
25.01	0.288149	1.54778	1.5123	0.541866	0.224609	0.936481	-0.0333151	-0.0378842	-0.145365	0	-0.0599785	0	0	-0.0400256	-0.00473744	-0.229683	0	-0.0269069	0	0	-0.164895	0.0302528	-0.104879	0.166316	-0.276284	0.554966	0.409729	1.05614	0	0	0.121273	-0.30959	0.527698	0.750036	1.04237	0	0
25.02	0.296133	1.54904	1.50175	0.542091	0.224959	0.936541	-0.0348282	-0.0376676	-0.143271	0	-0.0600739	0	0	-0.0421216	-0.0050161	-0.231046	0	-0.0260587	0	0	-0.164089	0.0296	-0.102268	0.165809	-0.276892	0.55857	0.411434	1.05363	0	0	0.120981	-0.309221	0.529625	0.749093	1.04716	0	0
25.03	0.318586	1.55037	1.47677	0.542322	0.22524	0.936616	-0.0362925	-0.0371342	-0.14095	0	-0.0603729	0	0	-0.0443361	-0.00552171	-0.232581	0	-0.0253068	0	0	-0.163676	0.029338	-0.0997602	0.165518	-0.277431	0.561322	0.412777	1.05177	0	0	0.120593	-0.308499	0.530323	0.747948	1.05165	0	0
25.04	0.335948	1.55175	1.45712	0.542494	0.225616	0.936634	-0.0377885	-0.0368708	-0.139016	0	-0.0602132	0	0	-0.0465495	-0.00582009	-0.234121	0	-0.0246224	0	0	-0.163409	0.0289595	-0.0976276	0.165284	-0.277678	0.562917	0.413669	1.05075	0	0	0.119847	-0.307654	0.529595	0.747147	1.05558	0	0
25.05	0.347163	1.55319	1.44415	0.542632	0.225842	0.936674	-0.0395205	-0.0368589	-0.137463	0	-0.0597089	0	0	-0.0488575	-0.00589921	-0.235443	0	-0.0240255	0	0	-0.163337	0.0285117	-0.0960401	0.164983	-0.277885	0.564003	0.414371	1.05021	0	0	0.118818	-0.306715	0.527936	0.746451	1.05892	0	0
25.06	0.393497	1.55458	1.39614	0.542637	0.226045	0.936788	-0.0399377	-0.0364127	-0.133219	0	-0.0629508	0	0	-0.0514613	-0.00651518	-0.236326	0	-0.0240797	0	0	-0.162816	0.0289074	-0.0945756	0.164439	-0.278369	0.564869	0.414598	1.04966	0	0	0.117209	-0.305049	0.525722	0.744101	1.06212	0	0
25.07	0.407927	1.55599	1.38097	0.542678	0.226293	0.936813	-0.0418378	-0.0365731	-0.132166	0	-0.0621829	0	0	-0.0535828	-0.00647286	-0.236987	0	-0.0236725	0	0	-0.162852	0.0286231	-0.0945546	0.164495	-0.278121	0.565526	0.414287	1.04931	0	0	0.115402	-0.304003	0.52262	0.742349	1.06493	0	0
25.08	0.440602	1.55744	1.34794	0.542665	0.22649	0.936848	-0.0437428	-0.0364657	-0.131151	0	-0.0617085	0	0	-0.055736	-0.00661527	-0.237444	0	-0.0233606	0	0	-0.163161	0.0286589	-0.0952012	0.16475	-0.277616	0.565402	0.413498	1.04926	0	0	0.113253	-0.302851	0.51847	0.740861	1.06696	0	0
25.09	0.480689	1.55856	1.30769	0.542637	0.226655	0.936868	-0.0451903	-0.0362305	-0.13018	0	-0.0615029	0	0	-0.0574366	-0.00685284	-0.237788	0	-0.0231345	0	0	-0.163509	0.0288338	-0.0959975	0.16495	-0.277227	0.564873	0.412944	1.04937	0	0	0.111193	-0.301824	0.51435	0.739572	1.06812	0	0
25.1	0.520701	1.5594	1.26771	0.542617	0.226755	0.936904	-0.0462397	-0.0359096	-0.129607	0	-0.0611703	0	0	-0.0586911	-0.00709921	-0.237901	0	-0.0229338	0	0	-0.16361	0.0290455	-0.0968276	0.165049	-0.27697	0.564551	0.41241	1.04936	0	0	0.109556	-0.3008	0.511369	0.737142	1.06862	0	0
25.11	0.546313	1.55967	1.24252	0.542581	0.226824	0.936922	-0.0466256	-0.0356184	-0.130654	0	-0.0599415	0	0	-0.0592058	-0.00734585	-0.237491	0	-0.0228635	0	0	-0.163067	0.0292027	-0.0979914	0.164793	-0.276148	0.560987	0.411292	1.05174	0	0	0.108132	-0.300033	0.51005	0.734602	1.05904	0	0
25.12	0.562034	1.56086	1.22887	0.54263	0.227043	0.936895	-0.0497658	-0.0380303	-0.145732	0	-0.0547267	0	0	-0.0601875	-0.00742431	-0.23696	0	-0.0220322	0	0	-0.163886	0.0286056	-0.100756	0.164386	-0.275209	0.559746	0.411152	1.05171	0	0	0.106848	-0.300662	0.509513	0.732741	1.05534	0	0
25.13	0.569916	1.56068	1.22131	0.542549	0.227047	0.936889	-0.0495725	-0.0378493	-0.145876	0	-0.0542924	0	0	-0.0600326	-0.00769975	-0.23672	0	-0.0217881	0	0	-0.163101	0.0287257	-0.102404	0.164142	-0.274872	0.558929	0.410861	1.05187	0	0	0.105145	-0.300585	0.509128	0.730175	1.05149	0	0
25.14	0.582014	1.56051	1.2094	0.542591	0.227174	0.936886	-0.0494253	-0.037629	-0.145887	0	-0.0536919	0	0	-0.0599202	-0.00798701	-0.23645	0	-0.0217193	0	0	-0.162186	0.0289056	-0.104117	0.163913	-0.274506	0.557425	0.410603	1.05147	0	0	0.103371	-0.300654	0.509508	0.727064	1.04795	0	0
25.15	0.58627	1.56019	1.20523	0.542578	0.227162	0.936897	-0.0490091	-0.0374528	-0.145711	0	-0.052887	0	0	-0.0595831	-0.00825504	-0.236203	0	-0.0214728	0	0	-0.16131	0.029096	-0.10566	0.163535	-0.2743	0.555729	0.410573	1.05122	0	0	0.101944	-0.300849	0.5105	0.723957	1.04477	0	0
25.16	0.575595	1.55971	1.21602	0.542601	0.227214	0.936887	-0.0482212	-0.0374217	-0.145632	0	-0.0519849	0	0	-0.0589335	-0.008374	-0.235988	0	-0.0213023	0	0	-0.160379	0.0291667	-0.107161	0.162857	-0.274266	0.554024	0.41087	1.05111	0	0	0.100888	-0.301217	0.512725	0.72026	1.04233	0	0
25.17	0.561567	1.55926	1.23017	0.542606	0.227197	0.936887	-0.0474588	-0.0374376	-0.145492	0	-0.0510944	0	0	-0.058288	-0.00843854	-0.235954	0	-0.0210566	0	0	-0.159544	0.0291325	-0.108251	0.161795	-0.274535	0.552359	0.411616	1.05083	0	0	0.100474	-0.301692	0.516565	0.715841	1.0407	0	0
25.18	0.547111	1.55885	1.24477	0.54262	0.227304	0.93686	-0.0466725	-0.0374512	-0.145355	0	-0.0503021	0	0	-0.0576255	-0.00847847	-0.235942	0	-0.0209044	0	0	-0.158844	0.029129	-0.109758	0.161389	-0.275285	0.555313	0.412148	1.04675	0	0	0.0990144	-0.301104	0.513871	0.711808	1.05336	0	0
25.19	0.475684	1.55674	1.3145	0.54259	0.227172	0.936747	-0.0419602	-0.0356617	-0.131313	0	-0.0529551	0	0	-0.0553639	-0.00800286	-0.236337	0	-0.021338	0	0	-0.155854	0.0288553	-0.108634	0.159326	-0.27575	0.548954	0.412771	1.0511	0	0	0.0996108	-0.302168	0.524356	0.707975	1.03959	0	0
25.2	0.502903	1.55779	1.28896	0.542664	0.227288	0.936807	-0.0448255	-0.0376095	-0.144277	0	-0.0491908	0	0	-0.0562027	-0.00835852	-0.23627	0	-0.0205331	0	0	-0.157413	0.0286966	-0.110866	0.15831	-0.275647	0.548088	0.413213	1.05266	0	0	0.0998043	-0.30362	0.528745	0.704416	1.04016	0	0
25.21	0.468839	1.55605	1.32146	0.542667	0.227254	0.936737	-0.0406817	-0.0353939	-0.130841	0	-0.0517199	0	0	-0.0544948	-0.0081545	-0.236383	0	-0.0211325	0	0	-0.155198	0.0289095	-0.111032	0.157889	-0.277001	0.553136	0.413518	1.04523	0	0	0.0980705	-0.302816	0.527428	0.699806	1.0476	0	0
25.22	0.471196	1.55592	1.31903	0.542733	0.227263	0.936767	-0.0403118	-0.0352108	-0.130405	0	-0.0514884	0	0	-0.0543441	-0.00823562	-0.236679	0	-0.0211793	0	0	-0.155133	0.0288455	-0.111164	0.15645	-0.276849	0.548062	0.412469	1.05704	0	0	0.0991329	-0.304003	0.535626	0.695454	1.04163	0	0
25.23	0.470337	1.55588	1.31995	0.542789	0.22729	0.936783	-0.0401455	-0.0350663	-0.130613	0	-0.0509475	0	0	-0.0542925	-0.00824457	-0.236983	0	-0.0212331	0	0	-0.1552	0.0287461	-0.111852	0.155498	-0.277189	0.548111	0.411782	1.05942	0	0	0.0990778	-0.304572	0.538394	0.692004	1.04269	0	0
25.24	0.467931	1.55592	1.32237	0.542864	0.227316	0.936783	-0.0400758	-0.0349553	-0.130674	0	-0.0506952	0	0	-0.0543092	-0.00822505	-0.237463	0	-0.0210658	0	0	-0.155355	0.0285666	-0.112439	0.154536	-0.277467	0.548402	0.410852	1.06228	0	0	0.0990138	-0.305246	0.541416	0.688283	1.04427	0	0
25.25	0.473486	1.556	1.3167	0.542967	0.227367	0.936773	-0.0400952	-0.0347338	-0.130615	0	-0.050461	0	0	-0.054417	-0.00836393	-0.237914	0	-0.0207276	0	0	-0.155575	0.0284651	-0.112831	0.153545	-0.27771	0.548556	0.409696	1.06552	0	0	0.0987846	-0.305912	0.544262	0.6843	1.04584	0	0
25.26	0.476487	1.5558	1.31377	0.543274	0.227093	0.936792	-0.0396965	-0.0344979	-0.130965	0	-0.0498391	0	0	-0.053993	-0.00852524	-0.238453	0	-0.0201202	0	0	-0.156445	0.0283986	-0.113601	0.153195	-0.27933	0.557486	0.410993	1.04913	0	0	0.0984558	-0.306673	0.544659	0.681812	1.04599	0	0
25.27	0.482584	1.55639	1.30744	0.543211	0.227497	0.936782	-0.0405837	-0.0344122	-0.130458	0	-0.0498598	0	0	-0.0550022	-0.00862386	-0.238277	0	-0.0205637	0	0	-0.156137	0.0281638	-0.113701	0.151402	-0.279792	0.5584	0.409604	1.0503	0	0	0.0973026	-0.307072	0.546056	0.678732	1.04696	0	0
